<svg xmlns="http://www.w3.org/2000/svg" width="96" height="96" viewBox="0 0 200 200" fill="none" role="img" aria-label="Feedbackbogen-Generator">
  <rect width="200" height="200" rx="44" fill="#245dcc"/>
  <g transform="translate(40, 36)">
    <rect x="10" y="0" width="80" height="104" rx="8" fill="#fff" opacity="0.95"/>
    <rect x="22" y="14" width="56" height="8" rx="4" fill="#245dcc" opacity="0.85"/>
    <rect x="22" y="34" width="56" height="5" rx="2.5" fill="#245dcc" opacity="0.25"/>
    <rect x="22" y="46" width="48" height="5" rx="2.5" fill="#245dcc" opacity="0.25"/>
    <rect x="22" y="58" width="52" height="5" rx="2.5" fill="#245dcc" opacity="0.25"/>
    <rect x="22" y="70" width="40" height="5" rx="2.5" fill="#245dcc" opacity="0.25"/>
    <path d="M62 82 C 72 76, 84 82, 86 94 C 87 102, 82 110, 74 112 L 78 118 L 66 114 L 72 104 L 74 108 C 78 106, 80 100, 78 94 C 76 88, 70 86, 64 88 Z" fill="#008F77"/>
  </g>
</svg>
