<svg xmlns="http://www.w3.org/2000/svg" style="display:none">
  <symbol id="icon-save" viewBox="0 0 24 24">
    <path fill="currentColor" d="M17 3H5a2 2 0 0 0-2 2v14a2 2 0 0 0 2 2h14a2 2 0 0 0 2-2V7l-4-4Zm-5 16a3 3 0 1 1 0-6a3 3 0 0 1 0 6ZM6 8V5h8v3H6Z"/>
  </symbol>
  <symbol id="icon-upload" viewBox="0 0 24 24">
    <path fill="currentColor" d="M5 18h14v2H5v-2Zm6-9.17l-3.59 3.58L6 11l6-6l6 6l-1.41 1.41L13 8.83V16h-2V8.83Z"/>
  </symbol>
  <symbol id="icon-download" viewBox="0 0 24 24">
    <path fill="currentColor" d="M5 18h14v2H5v-2Zm6-10h2v7.17l3.59-3.58L18 13l-6 6l-6-6l1.41-1.41L11 15.17V8Z"/>
  </symbol>
  <symbol id="icon-file" viewBox="0 0 24 24">
    <path fill="currentColor" d="M14 2H6a2 2 0 0 0-2 2v16a2 2 0 0 0 2 2h12a2 2 0 0 0 2-2V8l-6-6Z"/>
  </symbol>
  <symbol id="icon-plus" viewBox="0 0 24 24">
    <path fill="currentColor" d="M19 11H13V5h-2v6H5v2h6v6h2v-6h6v-2Z"/>
  </symbol>
  <symbol id="icon-trash" viewBox="0 0 24 24">
    <path fill="currentColor" d="M6 7h12v2H6V7Zm2 3h2v8H8v-8Zm6 0h2v8h-2v-8ZM9 4h6v2H9V4Z"/>
  </symbol>
  <symbol id="icon-reorder" viewBox="0 0 24 24">
    <path fill="currentColor" d="M3 7h18v2H3V7Zm0 4h18v2H3v-2Zm0 4h18v2H3v-2Z"/>
  </symbol>
  <symbol id="icon-undo" viewBox="0 0 24 24">
    <path fill="currentColor" d="M7.4 7H14a6 6 0 1 1 0 12h-4v-2h4a4 4 0 1 0 0-8H7.4l3.3 3.3-1.4 1.4L3.6 8l5.7-5.7 1.4 1.4L7.4 7Z"/>
  </symbol>
  <symbol id="icon-redo" viewBox="0 0 24 24">
    <path fill="currentColor" d="M16.6 7H10a6 6 0 1 0 0 12h4v-2h-4a4 4 0 1 1 0-8h6.6l-3.3 3.3 1.4 1.4L20.4 8l-5.7-5.7-1.4 1.4L16.6 7Z"/>
  </symbol>
  <symbol id="icon-pdf" viewBox="0 0 24 24">
    <path fill="currentColor" d="M6 2h9l5 5v15a2 2 0 0 1-2 2H6a2 2 0 0 1-2-2V4a2 2 0 0 1 2-2Zm7 1.5V8h4.5L13 3.5Z"/>
  </symbol>
  <symbol id="icon-doc" viewBox="0 0 24 24">
    <path fill="currentColor" d="M4 3h14l2 2v14a2 2 0 0 1-2 2H4V3Zm4 4v10h2a3 3 0 0 0 0-6H8V7Z"/>
  </symbol>
  <symbol id="icon-xlsx" viewBox="0 0 24 24">
    <path fill="currentColor" d="M4 2h10l6 6v14H4V2Zm10 1.5V8h4.5L14 3.5Z"/>
  </symbol>
  <symbol id="icon-odp" viewBox="0 0 24 24">
    <path fill="currentColor" d="M4 2h10l6 6v14H4V2Zm10 1.5V8h4.5L14 3.5Z"/>
  </symbol>
</svg>
