<svg xmlns="http://www.w3.org/2000/svg" style="display:none">
  <symbol id="icon-save" viewBox="0 0 24 24">
    <path fill="currentColor" d="M17 3H5a2 2 0 0 0-2 2v14a2 2 0 0 0 2 2h14a2 2 0 0 0 2-2V7l-4-4Zm-5 16a3 3 0 1 1 0-6a3 3 0 0 1 0 6ZM6 8V5h8v3H6Z"/>
  </symbol>
  <symbol id="icon-upload" viewBox="0 0 24 24">
    <path fill="currentColor" d="M5 20h14v-2H5v2Zm7-16l-5 5h3v4h4v-4h3l-5-5Z"/>
  </symbol>
  <symbol id="icon-download" viewBox="0 0 24 24">
    <path fill="currentColor" d="M5 20h14v-2H5v2Zm7-16v8l3-3l1.41 1.41L12 16.83l-4.41-4.42L9 13l3 3V4h2Z"/>
  </symbol>
  <symbol id="icon-file" viewBox="0 0 24 24">
    <path fill="currentColor" d="M14 2H6a2 2 0 0 0-2 2v16a2 2 0 0 0 2 2h12a2 2 0 0 0 2-2V8l-6-6Z"/>
  </symbol>
  <symbol id="icon-plus" viewBox="0 0 24 24">
    <path fill="currentColor" d="M19 11H13V5h-2v6H5v2h6v6h2v-6h6v-2Z"/>
  </symbol>
  <symbol id="icon-trash" viewBox="0 0 24 24">
    <path fill="currentColor" d="M6 7h12v2H6V7Zm2 3h2v8H8v-8Zm6 0h2v8h-2v-8ZM9 4h6v2H9V4Z"/>
  </symbol>
  <symbol id="icon-reorder" viewBox="0 0 24 24">
    <path fill="currentColor" d="M3 7h18v2H3V7Zm0 4h18v2H3v-2Zm0 4h18v2H3v-2Z"/>
  </symbol>
  <symbol id="icon-pdf" viewBox="0 0 24 24">
    <path fill="currentColor" d="M6 2h9l5 5v15a2 2 0 0 1-2 2H6a2 2 0 0 1-2-2V4a2 2 0 0 1 2-2Zm7 1.5V8h4.5L13 3.5Z"/>
  </symbol>
  <symbol id="icon-doc" viewBox="0 0 24 24">
    <path fill="currentColor" d="M4 3h14l2 2v14a2 2 0 0 1-2 2H4V3Zm4 4v10h2a3 3 0 0 0 0-6H8V7Z"/>
  </symbol>
  <symbol id="icon-xlsx" viewBox="0 0 24 24">
    <path fill="currentColor" d="M4 2h10l6 6v14H4V2Zm10 1.5V8h4.5L14 3.5Z"/>
  </symbol>
  <symbol id="icon-odp" viewBox="0 0 24 24">
    <path fill="currentColor" d="M4 2h10l6 6v14H4V2Zm10 1.5V8h4.5L14 3.5Z"/>
  </symbol>
</svg>

