<svg version="1.1" xmlns="http://www.w3.org/2000/svg" style="display: block;" viewBox="0 0 2048 2048" width="1024" height="1024" preserveAspectRatio="none">
<path transform="translate(0,0)" fill="rgb(46,55,57)" d="M 0 0 L 2048 0 L 2048 2048 L 0 2048 L 0 0 z"/>
<path transform="translate(0,0)" fill="rgb(254,254,254)" d="M 1171.34 371.546 C 1198.16 369.815 1235.99 371.938 1261.92 379.185 C 1281.91 384.772 1300.03 395.683 1310.21 414.32 C 1320.59 433.342 1320.7 453.398 1314.51 473.819 C 1308.91 492.284 1294.78 507.959 1277.69 516.575 C 1233.99 538.608 1106.95 538.211 1054.28 540.32 C 1031.17 541.246 1000.83 540.376 980.25 551.589 C 974.409 561.626 968.318 603.632 973.826 612.559 C 985.908 618.33 1059.57 609.597 1078.59 609.976 C 1114.36 610.562 1162.42 609.506 1188.44 638.196 C 1207.94 661.899 1203.64 696.825 1180.83 716.9 C 1141.95 751.017 1078.89 745.951 1029.54 750.562 C 939.303 758.994 880.908 790.527 812.82 847.284 C 816.647 906.321 812.169 1036.63 907.935 1005.58 C 964.214 987.338 945.541 872.192 946.925 827.054 C 947.259 816.171 944.59 788.085 960.345 788.675 C 977.156 789.303 968.582 842.881 971.308 854.861 C 972.306 901.334 976.77 971.7 944.424 1008.71 C 918.623 1038.22 857.959 1041.86 830.214 1011.62 C 794.548 974.865 794.542 911.647 792.175 865.167 C 734.805 915.112 684.584 997.717 667.407 1071.7 C 646.588 1159.87 664.494 1257.91 714.65 1332.84 C 823.866 1496.01 1057.14 1538.75 1219.79 1431.26 C 1299.32 1378.7 1361.02 1303.78 1381.84 1209.86 C 1372.21 1211.41 1340.43 1211.42 1328.12 1211.9 L 1266.16 1213.74 C 1216 1215.73 1114.66 1225.34 1087.51 1169.97 C 1070.35 1134.95 1089.43 1092.79 1125.08 1078.89 C 1146.58 1070.64 1172.16 1064.59 1195.37 1063.15 C 1295.57 1056.93 1397.71 1059.11 1498.08 1060.09 C 1522.53 1060.33 1562.23 1071.84 1570.1 1098.89 C 1589.77 1166.45 1564.4 1249.85 1540.91 1314.15 C 1483.29 1454.14 1373.94 1578.48 1232.36 1636.25 C 1090.87 1694.64 939.485 1686.88 799.108 1630.48 C 674.804 1580.54 564.325 1472.93 512.772 1349.25 C 506.989 1334.95 500.591 1320.56 495.822 1305.9 C 473.527 1237.36 464.973 1160 473.798 1088.39 C 490.45 953.254 560.391 819.478 668.441 734.963 C 679.215 726.536 725.462 690.209 736.883 692.445 C 739.41 692.94 740.267 693.585 741.58 695.719 C 740.347 702.25 722.918 712.938 716.836 717.467 C 595.148 808.386 508.47 942.463 495.06 1095.94 C 469.063 1393.47 692.746 1626.2 982.183 1650.37 C 1115.88 1662.48 1248.91 1620.99 1352.02 1535.03 C 1431.79 1467.35 1491.58 1378.7 1526.44 1280.35 C 1539.09 1244.66 1548.79 1207.6 1552.68 1169.69 C 1554.54 1151.64 1554.75 1112.8 1541.86 1098.37 C 1531.65 1086.95 1503.83 1084.28 1488.93 1083.86 C 1439.28 1082.45 1389.4 1083.14 1339.64 1082.99 C 1287.82 1083.26 1234.42 1080.68 1182.97 1087.36 C 1151.24 1091.47 1103.86 1101.83 1103.73 1141.89 C 1103.63 1172.83 1135.96 1187.57 1162.28 1190.42 C 1230.98 1197.86 1302 1188.18 1371.12 1188.01 C 1387.04 1187.97 1408.91 1188.46 1405.53 1210.19 C 1400.13 1244.89 1386.69 1277.73 1369.62 1308.23 C 1343.31 1356.18 1306.46 1395.67 1264.01 1429.41 C 1184.2 1492.83 1081.25 1524.71 979.6 1513.34 C 863.253 1501.48 754.337 1441.28 690.653 1341.66 C 647.118 1272.7 627.941 1191.14 636.184 1110.01 C 646.442 1006.58 710.485 899.872 789.99 834.668 C 785.604 766.443 787.938 698.226 790.711 629.998 C 792.628 582.824 792.181 536.071 802.501 489.678 C 824.878 389.076 926.371 386.525 1009.52 380.003 C 1063.37 375.721 1117.33 372.901 1171.34 371.546 z"/>
<path transform="translate(0,0)" fill="rgb(46,55,57)" d="M 1137.23 395.539 C 1144.77 397.14 1155.65 395.18 1163.62 395.053 C 1193.3 394.578 1226.73 393.559 1255.37 402.278 C 1269.53 406.59 1283.25 413.036 1290.19 426.802 C 1296.24 438.794 1297.13 453.9 1292.87 466.636 C 1288.06 480.981 1276.98 490.461 1263.48 496.38 C 1216.83 516.834 1083.69 514.032 1025.64 518.667 C 1007.93 520.082 986.574 520.599 970.609 529.199 C 960.878 534.441 955.278 546.541 952.389 556.815 C 947.666 573.612 947.035 614.429 955.332 629.4 C 976.531 636.95 994.664 633.828 1017.42 633.558 C 1060.81 633.044 1126.88 623.607 1165.65 646.714 C 1171.91 650.942 1176.89 658.341 1177.75 665.817 C 1182.37 706.405 1139.34 716.726 1108.9 720.69 C 1096.65 722.14 1083.73 723.129 1071.62 723.608 C 995.096 726.636 919.649 741.348 855.336 785.329 C 840.784 795.281 826.167 806.442 811.291 816.629 C 809.135 755.329 809.435 696.267 812.959 635.009 C 815.688 587.567 815.356 540.193 825.935 493.434 C 843.427 416.126 922.849 410.467 987.499 405.159 C 1021.43 402.244 1055.4 399.779 1089.4 397.764 C 1105.07 396.839 1121.84 396.902 1137.23 395.539 z"/>
<path transform="translate(0,0)" fill="rgb(254,254,254)" d="M 1294.18 683.298 C 1311.75 681.333 1354.24 686.993 1374.37 687.973 C 1397.89 689.718 1421.38 691.08 1444.92 692.683 C 1448.78 692.946 1460.29 696.587 1461.17 701.153 C 1461.77 704.225 1460.45 711.384 1458.61 714.004 C 1445.56 723.344 1357.94 710.725 1334.65 710.228 C 1348.19 721.04 1362.74 730.754 1376.07 741.729 C 1421.97 779.408 1462.69 823.533 1491.82 875.55 C 1498.6 887.659 1524.15 933.956 1515.71 946.326 C 1509.25 948.316 1506.58 945.295 1503.24 940.219 L 1502.62 939.257 C 1493.29 924.286 1486.02 906.34 1476.34 891.381 C 1431.12 821.438 1384.25 775.85 1316.71 728.526 C 1323.8 748.299 1354.78 821.155 1347.65 837.79 C 1346.68 840.051 1345.5 842.088 1343.17 843.09 C 1336.7 841.493 1330.37 842.871 1327.76 834.983 C 1316.9 802.25 1305.91 770.019 1292.57 738.166 C 1287.41 725.867 1280.56 709.728 1278.54 696.786 C 1284.4 688.524 1284.56 686.37 1294.18 683.298 z"/>
</svg>